<svg width="318" height="322" viewBox="0 0 318 322" fill="none" xmlns="http://www.w3.org/2000/svg">
<path d="M195.937 166.6C193.519 173.72 189.017 184.768 177.961 193.3C166.329 202.277 156.489 205.76 146.967 204.87C136.992 204.87 127.836 198.664 122.936 186.625C117.343 172.884 120.669 157.255 125.203 148.355C128.83 139.01 139.579 126.249 152.408 119.874C164.54 113.846 172.359 116.314 180.067 117.649C183.695 118.539 194.179 124.774 197.298 135.894C200.433 147.075 197.298 162.595 195.937 166.6Z" fill="#3C2D18"/>
<path d="M160.117 146.13C161.024 141.68 164.471 136.624 169.639 132.779C172.353 130.76 174.116 129.833 177.347 128.774C180.246 127.824 182.335 127.439 185.055 127.439C187.776 127.439 180.067 132.334 177.347 134.559C174.626 136.785 171.479 140.94 168.732 145.685C164.331 153.282 165.334 158.969 161.93 167.045C159.206 173.508 157.396 177.725 153.769 183.065C150.141 188.405 141.073 192.855 141.073 192.855C141.073 192.855 134.665 195.08 133.525 193.745C132.004 191.965 141.073 186.625 145.607 181.285C150.141 175.945 150.355 172.755 152.862 167.045C156.341 159.121 159.21 150.58 160.117 146.13Z" fill="#FBF3E4" stroke="#3C2D18"/>
<path d="M159 5C243.993 5 313 74.7845 313 161C313 247.216 243.993 317 159 317C74.0069 317 5 247.216 5 161C5 74.7845 74.0069 5 159 5Z" stroke="#3B2C17" stroke-width="10"/>
<path d="M71.0951 126.993L40.6347 112.811L44.0971 105.795L72.574 98.6213L70.9384 101.936L50.6606 92.4945L54.7814 84.1439L85.2417 98.3259L81.7794 105.342L53.3024 112.516L54.938 109.202L75.2159 118.643L71.0951 126.993Z" fill="#3C2A1E"/>
<path d="M92.0585 85.4272L82.6854 50.3141L90.1209 44.6287L123.097 61.6942L115.242 67.7003L87.7904 52.2695L90.7646 49.9953L99.7608 79.5377L92.0585 85.4272ZM94.3923 75.4282L91.9246 68.4967L104.965 58.5254L111.322 62.483L94.3923 75.4282Z" fill="#3C2A1E"/>
<path d="M136.867 66.2118L136.504 32.6137L144.328 32.5681L163.097 54.8267L159.401 54.8483L159.16 32.4816L168.472 32.4273L168.834 66.0253L161.011 66.071L142.242 43.8123L145.937 43.7908L146.179 66.1575L136.867 66.2118Z" fill="#3C2A1E"/>
<path d="M191.715 72.7678C189.137 71.8057 186.772 70.5648 184.62 69.0449C182.511 67.5064 180.907 65.9517 179.808 64.3805L185.308 58.9544C186.364 60.373 187.689 61.721 189.282 62.9986C190.918 64.2576 192.65 65.2283 194.478 65.9107C195.708 66.3694 196.738 66.6344 197.57 66.7058C198.414 66.7474 199.071 66.6512 199.542 66.4172C200.055 66.1646 200.411 65.7853 200.611 65.2794C200.894 64.5653 200.788 63.8768 200.293 63.2141C199.798 62.5514 199.079 61.8903 198.136 61.231C197.192 60.5716 196.129 59.8675 194.946 59.1186C193.792 58.3809 192.653 57.5633 191.529 56.6656C190.435 55.7792 189.492 54.8128 188.702 53.7666C187.923 52.6907 187.416 51.494 187.18 50.1766C186.956 48.8295 187.173 47.3227 187.832 45.6563C188.574 43.7816 189.754 42.2756 191.374 41.1383C193.023 40.0123 195.065 39.3739 197.498 39.2234C199.932 39.0728 202.693 39.5737 205.781 40.726C207.849 41.4979 209.779 42.4911 211.569 43.7055C213.401 44.9014 214.92 46.2366 216.126 47.7111L210.788 53.2489C209.607 51.8861 208.358 50.7372 207.042 49.8022C205.738 48.8374 204.396 48.0977 203.017 47.5831C201.788 47.1244 200.746 46.8892 199.89 46.8773C199.046 46.8357 198.377 46.9616 197.883 47.2552C197.388 47.5487 197.035 47.9633 196.823 48.4989C196.552 49.1834 196.65 49.8513 197.114 50.5029C197.621 51.1358 198.346 51.782 199.289 52.4414C200.275 53.0822 201.344 53.7714 202.497 54.5091C203.68 55.2579 204.819 56.0756 205.914 56.9621C207.05 57.83 208.007 58.8019 208.786 59.8779C209.576 60.9241 210.068 62.1152 210.263 63.4511C210.499 64.7685 210.293 66.2455 209.646 67.8822C208.928 69.6973 207.738 71.1829 206.077 72.3387C204.457 73.4759 202.431 74.1199 199.997 74.2704C197.594 74.4322 194.833 73.9313 191.715 72.7678Z" fill="#3C2A1E"/>
<path d="M237.919 72.2672L249.59 82.6187L244.724 87.7947L233.054 77.4432L237.919 72.2672ZM229.348 82.3656L242.491 94.023L237.461 99.3738L217.279 81.4737L240.294 56.9928L260.008 74.4789L254.978 79.8297L242.302 68.5864L229.348 82.3656Z" fill="#3C2A1E"/>
<path d="M245.722 111.057L276.45 97.4635L280.485 106.068L256.649 116.613L263.455 131.129L256.563 134.178L245.722 111.057Z" fill="#3C2A1E"/>
<path d="M34.2054 176.828L57.8741 174.332L58.5801 181.027L34.9114 183.523L34.2054 176.828Z" fill="#3C2A1E"/>
<path d="M36.3464 190.86L59.121 183.949L60.7302 189.252L48.1065 203.387L47.2575 200.589L65.5283 205.064L67.1375 210.367L44.3826 217.343L42.5858 211.422L56.3284 207.181L56.6345 208.189L43.034 204.819L42.1652 201.956L51.5403 191.401L51.9154 192.637L38.1531 196.814L36.3464 190.86Z" fill="#3C2A1E"/>
<path d="M48.8702 226.331L68.1201 212.335L74.5181 221.135C75.7977 222.895 76.6132 224.614 76.9646 226.292C77.3293 227.989 77.2241 229.579 76.649 231.062C76.0921 232.532 75.0804 233.8 73.6137 234.866C72.1654 235.919 70.6563 236.484 69.0865 236.56C67.5166 236.637 65.9718 236.246 64.4521 235.39C62.9641 234.538 61.5803 233.232 60.3007 231.472L56.102 225.697L60.2264 226.397L52.8289 231.776L48.8702 226.331ZM59.6489 226.817L60.392 222.578L64.3507 228.023C65.1771 229.159 66.0378 229.823 66.9327 230.013C67.8409 230.221 68.735 230.006 69.615 229.366C70.5133 228.713 71.0034 227.922 71.0852 226.994C71.1803 226.084 70.8146 225.061 69.9882 223.924L66.0295 218.479L70.2914 219.08L59.6489 226.817Z" fill="#3C2A1E"/>
<path d="M76.231 256.343C74.5392 255.47 73.1186 254.392 71.9694 253.11C70.8202 251.828 69.9666 250.418 69.4087 248.88C68.8813 247.332 68.6687 245.743 68.771 244.112C68.8732 242.481 69.3351 240.87 70.1566 239.279C70.9781 237.688 72.024 236.378 73.2944 235.351C74.5648 234.323 75.9784 233.586 77.5352 233.14C79.1226 232.684 80.7717 232.553 82.4824 232.748C84.1932 232.942 85.8945 233.476 87.5863 234.35C89.2982 235.234 90.7188 236.311 91.8478 237.583C92.9971 238.865 93.8354 240.28 94.3628 241.828C94.9005 243.356 95.1183 244.935 95.0161 246.566C94.934 248.207 94.4822 249.823 93.6607 251.414C92.8392 253.005 91.778 254.32 90.4771 255.357C89.2067 256.385 87.7931 257.122 86.2362 257.568C84.6794 258.014 83.0456 258.14 81.3348 257.945C79.6442 257.761 77.9429 257.227 76.231 256.343ZM78.789 251.389C79.5947 251.805 80.4127 252.048 81.243 252.12C82.0935 252.202 82.9057 252.111 83.6796 251.847C84.484 251.574 85.2196 251.137 85.8863 250.538C86.5732 249.949 87.1506 249.201 87.6185 248.295C88.0968 247.368 88.3721 246.464 88.4444 245.583C88.5472 244.692 88.4719 243.85 88.2186 243.056C87.9959 242.252 87.6048 241.527 87.0455 240.882C86.5063 240.246 85.8339 239.72 85.0282 239.304C84.2226 238.888 83.3945 238.639 82.544 238.557C81.7137 238.486 80.8963 238.587 80.0919 238.86C79.318 239.124 78.5876 239.55 77.9007 240.14C77.2444 240.719 76.6771 241.472 76.1988 242.399C75.7308 243.305 75.4455 244.203 75.3427 245.094C75.26 245.995 75.3301 246.848 75.5528 247.652C75.8061 248.446 76.2024 249.16 76.7416 249.796C77.3009 250.442 77.9834 250.973 78.789 251.389Z" fill="#3C2A1E"/>
<path d="M87.9855 263.955L99.6146 243.19L109.107 248.506C111.006 249.569 112.466 250.79 113.487 252.167C114.528 253.555 115.098 255.043 115.196 256.631C115.305 258.199 114.916 259.774 114.03 261.356C113.155 262.918 112.021 264.063 110.627 264.789C109.244 265.495 107.689 265.767 105.961 265.605C104.265 265.434 102.467 264.817 100.568 263.754L94.3386 260.265L98.328 259.265L93.8591 267.245L87.9855 263.955ZM100.83 271.149L99.905 260.694L106.164 264.199L107.119 274.671L100.83 271.149ZM97.9792 259.888L96.8804 255.726L102.754 259.016C103.98 259.702 105.039 259.945 105.932 259.743C106.844 259.553 107.566 258.983 108.097 258.033C108.64 257.064 108.754 256.141 108.44 255.264C108.146 254.398 107.386 253.621 106.16 252.934L100.286 249.645L104.408 248.407L97.9792 259.888Z" fill="#3C2A1E"/>
<path d="M117.645 280.626L123.655 263.17L116.744 260.79L118.482 255.743L138.638 262.684L136.9 267.731L130.021 265.362L124.01 282.818L117.645 280.626Z" fill="#3C2A1E"/>
<path d="M156.592 287.548C154.779 287.536 153.16 287.241 151.736 286.665C150.312 286.065 149.184 285.253 148.353 284.227C147.544 283.201 147.144 282.054 147.153 280.785C147.161 279.538 147.441 278.429 147.992 277.458C148.565 276.488 149.433 275.598 150.594 274.79C151.778 273.983 153.28 273.211 155.098 272.476C156.303 271.963 157.247 271.504 157.93 271.101C158.613 270.698 159.091 270.316 159.366 269.955C159.663 269.572 159.813 269.187 159.816 268.802C159.819 268.326 159.663 267.94 159.348 267.643C159.033 267.346 158.558 267.195 157.923 267.191C157.266 267.186 156.743 267.353 156.356 267.69C155.991 268.028 155.806 268.446 155.803 268.944C155.801 269.239 155.855 269.534 155.967 269.83C156.101 270.125 156.348 270.467 156.708 270.855C157.09 271.243 157.619 271.745 158.295 272.362L170.764 283.6L167.268 287.554L153.212 274.843C152.446 274.157 151.816 273.495 151.322 272.857C150.85 272.219 150.492 271.582 150.247 270.946C150.025 270.31 149.916 269.663 149.92 269.006C149.929 267.782 150.265 266.719 150.928 265.816C151.592 264.892 152.526 264.184 153.731 263.694C154.936 263.181 156.343 262.93 157.952 262.941C159.426 262.951 160.705 263.187 161.79 263.648C162.897 264.109 163.754 264.772 164.36 265.638C164.966 266.503 165.265 267.525 165.257 268.704C165.249 269.747 164.971 270.697 164.421 271.554C163.894 272.412 163.072 273.2 161.956 273.917C160.863 274.635 159.465 275.339 157.76 276.03C156.714 276.454 155.872 276.878 155.235 277.305C154.62 277.731 154.175 278.17 153.9 278.621C153.625 279.05 153.485 279.548 153.481 280.115C153.478 280.568 153.623 280.988 153.915 281.376C154.207 281.763 154.624 282.072 155.166 282.302C155.709 282.51 156.354 282.616 157.102 282.622C158.417 282.631 159.631 282.322 160.747 281.695C161.862 281.045 162.82 280.1 163.622 278.859C164.447 277.618 165.013 276.114 165.32 274.348L170.511 275.948C169.996 278.28 169.075 280.313 167.748 282.049C166.444 283.786 164.837 285.146 162.926 286.13C161.038 287.092 158.926 287.564 156.592 287.548Z" fill="#3C2A1E"/>
<path d="M186.292 269.21L196.69 265.473L198.393 270.208L187.994 273.946L186.292 269.21ZM189.914 277.88L201.624 273.671L203.384 278.566L185.402 285.03L177.352 262.633L194.917 256.319L196.677 261.214L185.383 265.274L189.914 277.88Z" fill="#3C2A1E"/>
<path d="M206.729 277.525L208.288 259.788L210.708 263.926L194.888 256.876L201.406 253.002L211.609 257.656L208.849 259.336L209.531 248.172L215.785 244.454L214.281 261.486L211.849 257.394L228.414 264.634L221.751 268.595L211.217 263.584L213.877 262.003L213.334 273.599L206.729 277.525Z" fill="#3C2A1E"/>
<path d="M232.422 263.864L216.811 245.9L225.023 238.763C226.665 237.336 228.307 236.375 229.949 235.879C231.607 235.369 233.2 235.336 234.727 235.78C236.24 236.207 237.591 237.105 238.78 238.474C239.955 239.826 240.648 241.28 240.861 242.837C241.073 244.395 240.818 245.968 240.096 247.556C239.377 249.112 238.196 250.604 236.553 252.031L231.164 256.715L231.504 252.545L237.504 259.449L232.422 263.864ZM231.973 253.084L227.685 252.711L232.766 248.295C233.827 247.374 234.413 246.459 234.525 245.551C234.654 244.628 234.361 243.756 233.648 242.935C232.919 242.096 232.089 241.677 231.157 241.676C230.242 241.66 229.255 242.113 228.194 243.035L223.113 247.45L223.342 243.152L231.973 253.084Z" fill="#3C2A1E"/>
<path d="M258.241 239.158C256.698 240.273 255.095 241.054 253.432 241.5C251.769 241.947 250.126 242.071 248.501 241.875C246.882 241.646 245.368 241.118 243.959 240.291C242.55 239.463 241.322 238.323 240.273 236.872C239.224 235.42 238.528 233.896 238.185 232.298C237.842 230.701 237.823 229.107 238.128 227.516C238.438 225.894 239.066 224.363 240.012 222.925C240.958 221.486 242.203 220.21 243.746 219.095C245.308 217.966 246.911 217.186 248.555 216.752C250.218 216.306 251.859 216.197 253.479 216.426C255.084 216.636 256.592 217.154 258.001 217.982C259.428 218.796 260.666 219.929 261.715 221.381C262.763 222.832 263.457 224.373 263.795 226.002C264.138 227.6 264.157 229.194 263.852 230.784C263.547 232.375 262.922 233.889 261.976 235.328C261.048 236.753 259.803 238.03 258.241 239.158ZM254.976 234.638C255.711 234.107 256.298 233.488 256.737 232.779C257.194 232.057 257.48 231.292 257.594 230.482C257.713 229.641 257.656 228.787 257.422 227.922C257.206 227.043 256.8 226.19 256.203 225.363C255.592 224.518 254.91 223.864 254.156 223.402C253.408 222.908 252.623 222.595 251.8 222.462C250.982 222.298 250.159 222.319 249.33 222.527C248.519 222.721 247.746 223.083 247.012 223.614C246.277 224.145 245.681 224.772 245.223 225.494C244.784 226.202 244.505 226.977 244.386 227.818C244.272 228.628 244.323 229.472 244.538 230.351C244.759 231.198 245.174 232.044 245.785 232.89C246.382 233.716 247.055 234.377 247.804 234.871C248.57 235.351 249.363 235.674 250.18 235.838C251.003 235.971 251.82 235.94 252.63 235.746C253.459 235.538 254.241 235.169 254.976 234.638Z" fill="#3C2A1E"/>
<path d="M270.602 222.013L248.435 213.348L252.396 203.215C253.188 201.188 254.196 199.575 255.42 198.374C256.652 197.152 258.048 196.383 259.607 196.068C261.145 195.744 262.759 195.913 264.447 196.573C266.115 197.225 267.405 198.191 268.315 199.472C269.205 200.744 269.688 202.248 269.765 203.981C269.829 205.685 269.465 207.551 268.673 209.577L266.073 216.227L264.534 212.413L273.053 215.743L270.602 222.013ZM275.962 208.301L265.733 210.655L268.345 203.973L278.586 201.588L275.962 208.301ZM265.199 212.673L261.228 214.334L263.679 208.064C264.191 206.755 264.286 205.672 263.963 204.816C263.649 203.939 262.985 203.302 261.972 202.906C260.937 202.502 260.007 202.515 259.181 202.947C258.364 203.357 257.699 204.217 257.188 205.526L254.737 211.796L252.944 207.883L265.199 212.673Z" fill="#3C2A1E"/>
<path d="M283.392 188.536L264.964 187.412L264.519 194.709L259.191 194.384L260.489 173.105L265.817 173.43L265.374 180.693L283.802 181.817L283.392 188.536Z" fill="#3C2A1E"/>
</svg>
